<svg width="185" height="74" viewBox="0 0 185 74" fill="none" xmlns="http://www.w3.org/2000/svg">
<path d="M1 1L3.17857 5.35176C5.35714 9.70352 9.71428 18.407 14.0714 20.2615C18.4286 22.1159 22.7857 17.1213 27.1429 17.0683C31.5 17.0154 35.8571 21.9041 40.2143 25.2121C44.5714 28.5201 48.9286 30.2474 53.2857 31.3844C57.6428 32.5214 62 33.0681 66.3571 33.3724C70.7143 33.6767 75.0714 33.7386 79.4286 34.8514C83.7857 35.9643 88.1429 38.1281 92.5 41.2569C96.8571 44.3857 101.214 48.4794 105.571 47.0265C109.929 45.5736 114.286 38.5741 118.643 34.1428C123 29.7115 127.357 27.8483 131.714 29.2589C136.071 30.6695 140.429 35.3537 144.786 38.6306C149.143 41.9074 153.5 43.7768 157.857 48.0078C162.214 52.2389 166.571 58.8316 170.929 63.3906C175.286 67.9496 179.643 70.4748 181.821 71.7374L184 73" stroke="#FB1818"/>
</svg>
