<svg width="16" height="14" viewBox="0 0 16 14" fill="none" xmlns="http://www.w3.org/2000/svg">
<path d="M4.07408 1.08974C6.68628 0.862665 9.31326 0.862665 11.9255 1.08974L13.184 1.19914C14.0218 1.27197 14.7393 1.77169 15.1111 2.48651C15.1587 2.57795 15.1231 2.68867 15.0354 2.74293L9.81378 5.97537C8.69389 6.66863 7.2818 6.68318 6.14786 6.01313L0.891342 2.907C0.806417 2.85682 0.767435 2.75352 0.805708 2.6626C1.14584 1.85463 1.91053 1.27781 2.81556 1.19914L4.07408 1.08974Z" fill="#FFFF"/>
<path d="M0.801431 4.30579C0.671461 4.22899 0.505625 4.31164 0.490475 4.46184C0.279029 6.55821 0.330205 8.67441 0.644002 10.7612C0.809431 11.8613 1.70727 12.7046 2.81556 12.801L4.07409 12.9104C6.68628 13.1375 9.31326 13.1375 11.9255 12.9104L13.184 12.801C14.2923 12.7046 15.1901 11.8613 15.3555 10.7612C15.6785 8.6136 15.7233 6.43484 15.4899 4.27863C15.4735 4.12736 15.3049 4.04624 15.1755 4.12632L10.4717 7.0382C8.95658 7.97615 7.0461 7.99582 5.51195 7.08929L0.801431 4.30579Z" fill="#FFFF"/>
</svg>
