<svg width="10" height="10" viewBox="0 0 10 10" fill="none" xmlns="http://www.w3.org/2000/svg">
<path fill-rule="evenodd" clip-rule="evenodd" d="M10 5C10 7.76142 7.76142 10 5 10C2.23858 10 0 7.76142 0 5C0 2.23858 2.23858 0 5 0C7.76142 0 10 2.23858 10 5ZM5.17917 3.69123C4.69284 3.8935 3.72088 4.31217 2.26328 4.94723C2.02659 5.04135 1.9026 5.13343 1.89131 5.22347C1.87223 5.37563 2.06279 5.43555 2.32227 5.51714C2.35757 5.52824 2.39414 5.53974 2.43163 5.55193C2.68692 5.63491 3.03033 5.732 3.20886 5.73585C3.3708 5.73935 3.55154 5.67259 3.75109 5.53557C5.11297 4.61626 5.81598 4.15159 5.86012 4.14158C5.89126 4.13451 5.93441 4.12562 5.96364 4.15161C5.99288 4.17759 5.99 4.22681 5.98691 4.24001C5.96803 4.32048 5.22004 5.01588 4.83296 5.37575C4.71229 5.48794 4.62669 5.56752 4.60919 5.58569C4.56999 5.6264 4.53004 5.66491 4.49165 5.70193C4.25448 5.93056 4.07662 6.10202 4.5015 6.382C4.70567 6.51655 4.86905 6.62782 5.03205 6.73881C5.21006 6.86004 5.38761 6.98095 5.61733 7.13154C5.67586 7.1699 5.73175 7.20975 5.78619 7.24856C5.99335 7.39625 6.17947 7.52893 6.4094 7.50777C6.54301 7.49548 6.68102 7.36985 6.7511 6.99516C6.91675 6.10965 7.24233 4.19103 7.31758 3.40041C7.32417 3.33114 7.31588 3.24249 7.30922 3.20358C7.30256 3.16466 7.28864 3.10922 7.23806 3.06817C7.17815 3.01956 7.08567 3.00931 7.04431 3.01004C6.85625 3.01335 6.56772 3.11368 5.17917 3.69123Z" fill="#4176FF"/>
</svg>
