<svg width="10" height="10" viewBox="0 0 10 10" fill="none" xmlns="http://www.w3.org/2000/svg">
<path d="M8.97623 2.96011C8.98233 3.04827 8.98233 3.13643 8.98233 3.2254C8.98233 5.93635 6.91855 9.06289 3.14483 9.06289V9.06127C2.03006 9.06289 0.938452 8.74358 0 8.14151C0.162096 8.16101 0.325005 8.17076 0.48832 8.17116C1.41215 8.17197 2.30957 7.862 3.03636 7.29121C2.15844 7.27455 1.38858 6.70214 1.11964 5.86647C1.42718 5.92578 1.74406 5.9136 2.04591 5.83113C1.08877 5.63775 0.400163 4.7968 0.400163 3.82016C0.400163 3.81122 0.400163 3.80269 0.400163 3.79416C0.685354 3.953 1.00467 4.04116 1.3313 4.05091C0.429819 3.44843 0.15194 2.24916 0.696323 1.31152C1.73796 2.59326 3.27483 3.37246 4.92464 3.45493C4.75929 2.74236 4.98517 1.99566 5.51818 1.49475C6.34451 0.717984 7.64412 0.757797 8.42088 1.58372C8.88036 1.49312 9.32074 1.32452 9.72375 1.08565C9.57059 1.56056 9.25005 1.96397 8.82186 2.22032C9.22852 2.17238 9.62584 2.0635 10 1.89735C9.72456 2.3101 9.37761 2.66964 8.97623 2.96011Z" fill="#4176FF"/>
</svg>
