<svg width="215" height="85" viewBox="0 0 215 85" fill="none" xmlns="http://www.w3.org/2000/svg">
<path fill-rule="evenodd" clip-rule="evenodd" d="M29.5525 84.2552L52.7219 70.8792L29.1074 57.2648L23.1658 53.8424C23.1658 43.006 23.1658 32.1694 23.1658 21.3329L0 34.6771V40.4984V61.4113V67.2326L23.1658 80.5768L29.5525 84.2555V84.2552Z" fill="#040429"/>
<path fill-rule="evenodd" clip-rule="evenodd" d="M29.5562 44.6445V50.7089L52.7221 64.0531V37.3189V31.3005V13.3441C23.1738 -3.67682 57.8472 16.296 29.5562 0V23.9747V44.6445Z" fill="#040429"/>
<path d="M80.6539 34.6573C80.6539 36.2143 80.2983 37.6104 79.5872 38.8455C78.8761 40.0731 77.9778 41.0163 76.8924 41.675C76.0765 42.1691 75.1819 42.5134 74.2088 42.7081C73.2357 42.9027 72.0829 43 70.7505 43H64.8556V26.2809H70.9189C72.2813 26.2809 73.4565 26.3969 74.4446 26.629C75.4327 26.8536 76.2636 27.1754 76.9373 27.5946C78.0901 28.2983 78.9959 29.249 79.6546 30.4467C80.3208 31.6369 80.6539 33.0404 80.6539 34.6573ZM76.1962 34.6236C76.1962 33.5232 75.9941 32.5838 75.5899 31.8053C75.1932 31.0193 74.5606 30.4055 73.6923 29.9638C73.2507 29.7468 72.7978 29.6008 72.3337 29.5259C71.8771 29.4436 71.1846 29.4024 70.2564 29.4024H69.1673V39.8673H70.2564C71.2819 39.8673 72.0343 39.8224 72.5133 39.7325C72.9924 39.6352 73.4603 39.4631 73.9169 39.216C74.7029 38.7669 75.2793 38.168 75.6461 37.4195C76.0128 36.6634 76.1962 35.7315 76.1962 34.6236ZM89.4121 38.5423L92.2865 30.3905H96.441L89.4345 47.6261H85.0554L87.0541 42.9102L82.1473 30.3905H86.3916L89.4121 38.5423ZM111.364 43H107.299V36.7458C107.299 36.2368 107.273 35.7315 107.22 35.23C107.168 34.7209 107.078 34.3466 106.951 34.1071C106.801 33.8301 106.58 33.628 106.288 33.5008C106.004 33.3735 105.603 33.3099 105.087 33.3099C104.72 33.3099 104.346 33.3698 103.964 33.4895C103.59 33.6093 103.182 33.8002 102.74 34.0622V43H98.6979V30.3905H102.74V31.7828C103.459 31.2214 104.147 30.791 104.806 30.4916C105.472 30.1921 106.21 30.0424 107.018 30.0424C108.381 30.0424 109.444 30.4392 110.207 31.2326C110.978 32.0261 111.364 33.2126 111.364 34.792V43ZM122.727 39.7101V37.0826C122.18 37.1275 121.589 37.1912 120.953 37.2735C120.316 37.3484 119.834 37.4382 119.504 37.543C119.1 37.6703 118.789 37.8574 118.572 38.1044C118.363 38.344 118.258 38.6621 118.258 39.0588C118.258 39.3208 118.28 39.5342 118.325 39.6989C118.37 39.8635 118.482 40.0207 118.662 40.1704C118.834 40.3202 119.04 40.4324 119.28 40.5073C119.519 40.5747 119.893 40.6084 120.402 40.6084C120.807 40.6084 121.215 40.526 121.626 40.3613C122.046 40.1966 122.412 39.9796 122.727 39.7101ZM122.727 41.6638C122.51 41.8285 122.24 42.0269 121.918 42.2589C121.596 42.491 121.293 42.6744 121.009 42.8091C120.612 42.9888 120.2 43.1198 119.774 43.2021C119.347 43.2919 118.879 43.3369 118.37 43.3369C117.172 43.3369 116.169 42.9663 115.361 42.2252C114.552 41.4842 114.148 40.5372 114.148 39.3845C114.148 38.4637 114.354 37.7114 114.766 37.1275C115.177 36.5437 115.761 36.0833 116.517 35.7465C117.266 35.4096 118.194 35.1701 119.302 35.0278C120.41 34.8856 121.559 34.7808 122.749 34.7134V34.6461C122.749 33.9499 122.465 33.4708 121.896 33.2088C121.327 32.9394 120.489 32.8046 119.381 32.8046C118.714 32.8046 118.003 32.9244 117.247 33.1639C116.491 33.396 115.949 33.5756 115.619 33.7029H115.249V30.66C115.675 30.5477 116.368 30.4167 117.326 30.267C118.291 30.1098 119.257 30.0312 120.223 30.0312C122.521 30.0312 124.179 30.3868 125.197 31.0979C126.222 31.8015 126.735 32.9094 126.735 34.4215V43H122.727V41.6638ZM141.411 39.0027C141.411 40.3052 140.827 41.3569 139.659 42.1579C138.491 42.9513 136.893 43.3481 134.865 43.3481C133.742 43.3481 132.724 43.2433 131.81 43.0337C130.897 42.8241 130.164 42.592 129.61 42.3375V39.0139H129.98C130.182 39.1561 130.414 39.3133 130.676 39.4855C130.946 39.6502 131.324 39.8298 131.81 40.0245C132.23 40.1966 132.705 40.3464 133.236 40.4736C133.768 40.5934 134.337 40.6533 134.943 40.6533C135.737 40.6533 136.324 40.5672 136.706 40.395C137.088 40.2154 137.279 39.9534 137.279 39.609C137.279 39.3021 137.166 39.0813 136.942 38.9465C136.717 38.8043 136.291 38.6696 135.662 38.5423C135.362 38.475 134.954 38.4038 134.438 38.329C133.929 38.2466 133.465 38.1493 133.046 38.037C131.9 37.7376 131.051 37.2735 130.497 36.6447C129.943 36.0085 129.666 35.2187 129.666 34.2755C129.666 33.0629 130.239 32.0561 131.384 31.2551C132.537 30.4467 134.109 30.0424 136.1 30.0424C137.043 30.0424 137.945 30.1397 138.806 30.3344C139.674 30.5215 140.352 30.7236 140.838 30.9407V34.1296H140.49C139.891 33.7179 139.206 33.3848 138.435 33.1302C137.672 32.8682 136.897 32.7372 136.111 32.7372C135.46 32.7372 134.91 32.8271 134.46 33.0067C134.019 33.1864 133.798 33.4409 133.798 33.7703C133.798 34.0697 133.899 34.298 134.101 34.4552C134.303 34.6124 134.779 34.7696 135.527 34.9268C135.939 35.0091 136.38 35.0915 136.852 35.1738C137.331 35.2487 137.81 35.346 138.289 35.4657C139.352 35.7427 140.138 36.1806 140.647 36.7795C141.156 37.3708 141.411 38.1119 141.411 39.0027ZM152.168 42.8877C151.733 43 151.273 43.0861 150.786 43.146C150.3 43.2133 149.705 43.247 149.001 43.247C147.429 43.247 146.258 42.9289 145.487 42.2926C144.723 41.6563 144.341 40.5672 144.341 39.0251V33.1302H142.68V30.3905H144.341V26.7862H148.384V30.3905H152.168V33.1302H148.384V37.5991C148.384 38.0408 148.387 38.4263 148.395 38.7557C148.402 39.085 148.462 39.3807 148.574 39.6427C148.679 39.9047 148.863 40.1143 149.125 40.2715C149.394 40.4212 149.783 40.4961 150.292 40.4961C150.502 40.4961 150.775 40.4512 151.112 40.3613C151.456 40.2715 151.696 40.1892 151.831 40.1143H152.168V42.8877ZM160.286 38.5423L163.16 30.3905H167.315L160.308 47.6261H155.929L157.928 42.9102L153.021 30.3905H157.265L160.286 38.5423ZM183.596 31.5583C183.596 32.3068 183.465 33.0404 183.203 33.759C182.941 34.4702 182.567 35.069 182.08 35.5556C181.414 36.2143 180.669 36.7121 179.846 37.049C179.03 37.3858 178.012 37.5542 176.791 37.5542H174.108V43H169.796V26.2809H176.892C177.955 26.2809 178.85 26.3745 179.576 26.5616C180.31 26.7413 180.957 27.0145 181.519 27.3813C182.192 27.823 182.705 28.3881 183.057 29.0768C183.416 29.7655 183.596 30.5926 183.596 31.5583ZM179.138 31.6593C179.138 31.1877 179.011 30.7835 178.756 30.4467C178.502 30.1023 178.206 29.8628 177.869 29.728C177.42 29.5484 176.982 29.4511 176.556 29.4361C176.129 29.4136 175.56 29.4024 174.849 29.4024H174.108V34.4103H175.343C176.077 34.4103 176.679 34.3654 177.151 34.2755C177.63 34.1857 178.03 34.0061 178.352 33.7366C178.629 33.497 178.828 33.2126 178.947 32.8832C179.075 32.5464 179.138 32.1384 179.138 31.6593ZM194.072 39.7101V37.0826C193.525 37.1275 192.934 37.1912 192.298 37.2735C191.662 37.3484 191.179 37.4382 190.849 37.543C190.445 37.6703 190.135 37.8574 189.917 38.1044C189.708 38.344 189.603 38.6621 189.603 39.0588C189.603 39.3208 189.625 39.5342 189.67 39.6989C189.715 39.8635 189.828 40.0207 190.007 40.1704C190.179 40.3202 190.385 40.4324 190.625 40.5073C190.864 40.5747 191.239 40.6084 191.748 40.6084C192.152 40.6084 192.56 40.526 192.972 40.3613C193.391 40.1966 193.758 39.9796 194.072 39.7101ZM194.072 41.6638C193.855 41.8285 193.585 42.0269 193.263 42.2589C192.942 42.491 192.638 42.6744 192.354 42.8091C191.957 42.9888 191.546 43.1198 191.119 43.2021C190.692 43.2919 190.224 43.3369 189.715 43.3369C188.518 43.3369 187.515 42.9663 186.706 42.2252C185.898 41.4842 185.493 40.5372 185.493 39.3845C185.493 38.4637 185.699 37.7114 186.111 37.1275C186.523 36.5437 187.107 36.0833 187.863 35.7465C188.611 35.4096 189.539 35.1701 190.647 35.0278C191.755 34.8856 192.904 34.7808 194.094 34.7134V34.6461C194.094 33.9499 193.81 33.4708 193.241 33.2088C192.672 32.9394 191.834 32.8046 190.726 32.8046C190.06 32.8046 189.349 32.9244 188.592 33.1639C187.836 33.396 187.294 33.5756 186.964 33.7029H186.594V30.66C187.021 30.5477 187.713 30.4167 188.671 30.267C189.637 30.1098 190.602 30.0312 191.568 30.0312C193.866 30.0312 195.524 30.3868 196.542 31.0979C197.568 31.8015 198.08 32.9094 198.08 34.4215V43H194.072V41.6638ZM214.058 43H210.016V41.6863C209.32 42.2552 208.669 42.6744 208.063 42.9439C207.456 43.2133 206.756 43.3481 205.963 43.3481C204.428 43.3481 203.201 42.7567 202.28 41.574C201.359 40.3913 200.899 38.7968 200.899 36.7907C200.899 35.7203 201.052 34.7733 201.359 33.9499C201.674 33.119 202.1 32.4079 202.639 31.8165C203.148 31.2551 203.766 30.8209 204.492 30.514C205.218 30.1996 205.944 30.0424 206.67 30.0424C207.426 30.0424 208.044 30.1248 208.523 30.2895C209.009 30.4467 209.507 30.6488 210.016 30.8958V25.5286H214.058V43ZM210.016 39.5192V33.3324C209.732 33.2126 209.432 33.1265 209.118 33.0741C208.804 33.0217 208.515 32.9955 208.253 32.9955C207.19 32.9955 206.393 33.3286 205.862 33.9948C205.33 34.6536 205.065 35.5705 205.065 36.7458C205.065 37.9809 205.278 38.8792 205.705 39.4406C206.131 39.9945 206.816 40.2715 207.759 40.2715C208.126 40.2715 208.515 40.2041 208.927 40.0694C209.339 39.9272 209.702 39.7438 210.016 39.5192Z" fill="black"/>
<path d="M68.8843 56.5889H66.2866V63H65.3198V56.5889H62.7222V55.7295H68.8843V56.5889ZM75.4224 63H74.4556V59.4404H70.8276V63H69.8608V55.7295H70.8276V58.5811H74.4556V55.7295H75.4224V63ZM82.1704 63H77.3804V55.7295H82.1704V56.5889H78.3472V58.5811H82.1704V59.4404H78.3472V62.1406H82.1704V63ZM91.98 57.9268C91.98 58.249 91.923 58.5485 91.8091 58.8252C91.6984 59.0986 91.5422 59.3363 91.3403 59.5381C91.0897 59.7887 90.7935 59.9775 90.4517 60.1045C90.1099 60.2282 89.6785 60.29 89.1577 60.29H88.1909V63H87.2241V55.7295H89.1968C89.633 55.7295 90.0024 55.7669 90.3052 55.8418C90.6079 55.9134 90.8765 56.0273 91.1108 56.1836C91.3875 56.3691 91.6007 56.6003 91.7505 56.877C91.9035 57.1536 91.98 57.5036 91.98 57.9268ZM90.9741 57.9512C90.9741 57.7005 90.9302 57.4824 90.8423 57.2969C90.7544 57.1113 90.6209 56.96 90.4419 56.8428C90.2856 56.7419 90.1066 56.6702 89.9048 56.6279C89.7062 56.5824 89.4539 56.5596 89.1479 56.5596H88.1909V59.4648H89.0063C89.397 59.4648 89.7144 59.4307 89.9585 59.3623C90.2026 59.2907 90.4012 59.1784 90.5542 59.0254C90.7072 58.8691 90.8146 58.7048 90.8765 58.5322C90.9416 58.3597 90.9741 58.166 90.9741 57.9512ZM99.2749 63H98.02L95.5884 60.1094H94.2261V63H93.2593V55.7295H95.2954C95.7349 55.7295 96.1011 55.7588 96.394 55.8174C96.687 55.8727 96.9507 55.9736 97.1851 56.1201C97.4487 56.2861 97.6538 56.4961 97.8003 56.75C97.95 57.0007 98.0249 57.3197 98.0249 57.707C98.0249 58.2311 97.8931 58.6706 97.6294 59.0254C97.3657 59.377 97.0028 59.6423 96.5405 59.8213L99.2749 63ZM97.0142 57.7754C97.0142 57.5671 96.9767 57.3831 96.9019 57.2236C96.8302 57.0609 96.7098 56.9242 96.5405 56.8135C96.4006 56.7191 96.2345 56.654 96.0425 56.6182C95.8504 56.5791 95.6242 56.5596 95.3638 56.5596H94.2261V59.3037H95.2026C95.5086 59.3037 95.7756 59.2777 96.0034 59.2256C96.2313 59.1702 96.425 59.0693 96.5845 58.9229C96.731 58.7861 96.8384 58.6299 96.9067 58.4541C96.9784 58.2751 97.0142 58.0488 97.0142 57.7754ZM105.632 56.5645C105.929 56.89 106.155 57.2887 106.311 57.7607C106.471 58.2327 106.55 58.7682 106.55 59.3672C106.55 59.9661 106.469 60.5033 106.306 60.9785C106.147 61.4505 105.922 61.8444 105.632 62.1602C105.333 62.4889 104.978 62.7363 104.568 62.9023C104.161 63.0684 103.695 63.1514 103.171 63.1514C102.66 63.1514 102.195 63.0667 101.775 62.8975C101.358 62.7282 101.003 62.4824 100.71 62.1602C100.417 61.8379 100.191 61.4424 100.032 60.9736C99.8755 60.5049 99.7974 59.9694 99.7974 59.3672C99.7974 58.7747 99.8755 58.2441 100.032 57.7754C100.188 57.3034 100.416 56.8997 100.715 56.5645C101.002 56.2454 101.357 56.0013 101.78 55.832C102.206 55.6628 102.67 55.5781 103.171 55.5781C103.692 55.5781 104.159 55.6644 104.573 55.8369C104.989 56.0062 105.343 56.2487 105.632 56.5645ZM105.544 59.3672C105.544 58.4232 105.333 57.6956 104.91 57.1846C104.486 56.6702 103.909 56.4131 103.176 56.4131C102.437 56.4131 101.856 56.6702 101.433 57.1846C101.013 57.6956 100.803 58.4232 100.803 59.3672C100.803 60.321 101.018 61.0518 101.448 61.5596C101.877 62.0641 102.454 62.3164 103.176 62.3164C103.899 62.3164 104.473 62.0641 104.9 61.5596C105.33 61.0518 105.544 60.321 105.544 59.3672ZM117.332 63H116.301L115.588 60.9736H112.444L111.731 63H110.75L113.396 55.7295H114.685L117.332 63ZM115.291 60.1436L114.016 56.5742L112.737 60.1436H115.291ZM124.5 62.4629C124.102 62.6452 123.668 62.8047 123.196 62.9414C122.727 63.0749 122.273 63.1416 121.833 63.1416C121.267 63.1416 120.748 63.0635 120.276 62.9072C119.804 62.751 119.402 62.5166 119.07 62.2041C118.735 61.8883 118.476 61.4945 118.293 61.0225C118.111 60.5472 118.02 59.9922 118.02 59.3574C118.02 58.1953 118.359 57.279 119.036 56.6084C119.716 55.9346 120.649 55.5977 121.833 55.5977C122.247 55.5977 122.668 55.6481 123.098 55.749C123.531 55.8467 123.997 56.0143 124.495 56.252V57.3994H124.407C124.306 57.3213 124.159 57.2188 123.967 57.0918C123.775 56.9648 123.586 56.859 123.401 56.7744C123.176 56.6735 122.921 56.5905 122.634 56.5254C122.351 56.457 122.029 56.4229 121.667 56.4229C120.854 56.4229 120.209 56.6849 119.734 57.209C119.262 57.7298 119.026 58.4362 119.026 59.3281C119.026 60.2689 119.273 61.0013 119.768 61.5254C120.263 62.0462 120.937 62.3066 121.79 62.3066C122.102 62.3066 122.413 62.2757 122.722 62.2139C123.035 62.152 123.308 62.0723 123.542 61.9746V60.1924H121.594V59.3428H124.5V62.4629ZM132.253 62.4629C131.856 62.6452 131.422 62.8047 130.95 62.9414C130.481 63.0749 130.027 63.1416 129.587 63.1416C129.021 63.1416 128.502 63.0635 128.03 62.9072C127.558 62.751 127.156 62.5166 126.824 62.2041C126.488 61.8883 126.23 61.4945 126.047 61.0225C125.865 60.5472 125.774 59.9922 125.774 59.3574C125.774 58.1953 126.112 57.279 126.79 56.6084C127.47 55.9346 128.403 55.5977 129.587 55.5977C130.001 55.5977 130.422 55.6481 130.852 55.749C131.285 55.8467 131.75 56.0143 132.249 56.252V57.3994H132.161C132.06 57.3213 131.913 57.2188 131.721 57.0918C131.529 56.9648 131.34 56.859 131.155 56.7744C130.93 56.6735 130.675 56.5905 130.388 56.5254C130.105 56.457 129.783 56.4229 129.421 56.4229C128.608 56.4229 127.963 56.6849 127.488 57.209C127.016 57.7298 126.78 58.4362 126.78 59.3281C126.78 60.2689 127.027 61.0013 127.522 61.5254C128.017 62.0462 128.691 62.3066 129.543 62.3066C129.856 62.3066 130.167 62.2757 130.476 62.2139C130.789 62.152 131.062 62.0723 131.296 61.9746V60.1924H129.348V59.3428H132.253V62.4629ZM139.958 63H138.704L136.272 60.1094H134.91V63H133.943V55.7295H135.979C136.418 55.7295 136.785 55.7588 137.078 55.8174C137.371 55.8727 137.634 55.9736 137.869 56.1201C138.132 56.2861 138.337 56.4961 138.484 56.75C138.634 57.0007 138.708 57.3197 138.708 57.707C138.708 58.2311 138.577 58.6706 138.313 59.0254C138.049 59.377 137.686 59.6423 137.224 59.8213L139.958 63ZM137.698 57.7754C137.698 57.5671 137.66 57.3831 137.585 57.2236C137.514 57.0609 137.393 56.9242 137.224 56.8135C137.084 56.7191 136.918 56.654 136.726 56.6182C136.534 56.5791 136.308 56.5596 136.047 56.5596H134.91V59.3037H135.886C136.192 59.3037 136.459 59.2777 136.687 59.2256C136.915 59.1702 137.109 59.0693 137.268 58.9229C137.415 58.7861 137.522 58.6299 137.59 58.4541C137.662 58.2751 137.698 58.0488 137.698 57.7754ZM145.686 63H140.896V55.7295H145.686V56.5889H141.863V58.5811H145.686V59.4404H141.863V62.1406H145.686V63ZM153.289 62.4629C152.891 62.6452 152.457 62.8047 151.985 62.9414C151.516 63.0749 151.062 63.1416 150.623 63.1416C150.056 63.1416 149.537 63.0635 149.065 62.9072C148.593 62.751 148.191 62.5166 147.859 62.2041C147.524 61.8883 147.265 61.4945 147.083 61.0225C146.9 60.5472 146.809 59.9922 146.809 59.3574C146.809 58.1953 147.148 57.279 147.825 56.6084C148.505 55.9346 149.438 55.5977 150.623 55.5977C151.036 55.5977 151.458 55.6481 151.887 55.749C152.32 55.8467 152.786 56.0143 153.284 56.252V57.3994H153.196C153.095 57.3213 152.948 57.2188 152.756 57.0918C152.564 56.9648 152.375 56.859 152.19 56.7744C151.965 56.6735 151.71 56.5905 151.423 56.5254C151.14 56.457 150.818 56.4229 150.457 56.4229C149.643 56.4229 148.998 56.6849 148.523 57.209C148.051 57.7298 147.815 58.4362 147.815 59.3281C147.815 60.2689 148.062 61.0013 148.557 61.5254C149.052 62.0462 149.726 62.3066 150.579 62.3066C150.891 62.3066 151.202 62.2757 151.511 62.2139C151.824 62.152 152.097 62.0723 152.332 61.9746V60.1924H150.383V59.3428H153.289V62.4629ZM160.71 63H159.68L158.967 60.9736H155.823L155.11 63H154.128L156.775 55.7295H158.064L160.71 63ZM158.669 60.1436L157.395 56.5742L156.116 60.1436H158.669ZM167 56.5889H164.402V63H163.435V56.5889H160.837V55.7295H167V56.5889ZM173.396 56.5645C173.692 56.89 173.918 57.2887 174.075 57.7607C174.234 58.2327 174.314 58.7682 174.314 59.3672C174.314 59.9661 174.233 60.5033 174.07 60.9785C173.91 61.4505 173.686 61.8444 173.396 62.1602C173.097 62.4889 172.742 62.7363 172.332 62.9023C171.925 63.0684 171.459 63.1514 170.935 63.1514C170.424 63.1514 169.958 63.0667 169.539 62.8975C169.122 62.7282 168.767 62.4824 168.474 62.1602C168.181 61.8379 167.955 61.4424 167.795 60.9736C167.639 60.5049 167.561 59.9694 167.561 59.3672C167.561 58.7747 167.639 58.2441 167.795 57.7754C167.952 57.3034 168.18 56.8997 168.479 56.5645C168.765 56.2454 169.12 56.0013 169.543 55.832C169.97 55.6628 170.434 55.5781 170.935 55.5781C171.456 55.5781 171.923 55.6644 172.336 55.8369C172.753 56.0062 173.106 56.2487 173.396 56.5645ZM173.308 59.3672C173.308 58.4232 173.097 57.6956 172.673 57.1846C172.25 56.6702 171.672 56.4131 170.94 56.4131C170.201 56.4131 169.62 56.6702 169.197 57.1846C168.777 57.6956 168.567 58.4232 168.567 59.3672C168.567 60.321 168.782 61.0518 169.211 61.5596C169.641 62.0641 170.217 62.3164 170.94 62.3164C171.663 62.3164 172.237 62.0641 172.664 61.5596C173.093 61.0518 173.308 60.321 173.308 59.3672ZM181.863 63H180.608L178.176 60.1094H176.814V63H175.847V55.7295H177.883C178.323 55.7295 178.689 55.7588 178.982 55.8174C179.275 55.8727 179.539 55.9736 179.773 56.1201C180.037 56.2861 180.242 56.4961 180.388 56.75C180.538 57.0007 180.613 57.3197 180.613 57.707C180.613 58.2311 180.481 58.6706 180.217 59.0254C179.954 59.377 179.591 59.6423 179.128 59.8213L181.863 63ZM179.602 57.7754C179.602 57.5671 179.565 57.3831 179.49 57.2236C179.418 57.0609 179.298 56.9242 179.128 56.8135C178.988 56.7191 178.822 56.654 178.63 56.6182C178.438 56.5791 178.212 56.5596 177.952 56.5596H176.814V59.3037H177.791C178.097 59.3037 178.363 59.2777 178.591 59.2256C178.819 59.1702 179.013 59.0693 179.172 58.9229C179.319 58.7861 179.426 58.6299 179.495 58.4541C179.566 58.2751 179.602 58.0488 179.602 57.7754Z" fill="black"/>
</svg>
