<svg width="186" height="74" viewBox="0 0 186 74" fill="none" xmlns="http://www.w3.org/2000/svg">
<path d="M1 1L3.19048 5.35176C5.38095 9.70352 9.7619 18.407 14.1429 20.2615C18.5238 22.1159 22.9048 17.1213 27.2857 17.0683C31.6667 17.0154 36.0476 21.9041 40.4286 25.2121C44.8095 28.5201 49.1905 30.2474 53.5714 31.3844C57.9524 32.5214 62.3333 33.0681 66.7143 33.3724C71.0952 33.6767 75.4762 33.7386 79.8571 34.8514C84.2381 35.9643 88.619 38.1281 93 41.2569C97.381 44.3857 101.762 48.4794 106.143 47.0265C110.524 45.5736 114.905 38.5741 119.286 34.1428C123.667 29.7115 128.048 27.8483 132.429 29.2589C136.81 30.6695 141.19 35.3537 145.571 38.6306C149.952 41.9074 154.333 43.7768 158.714 48.0078C163.095 52.2389 167.476 58.8316 171.857 63.3906C176.238 67.9496 180.619 70.4748 182.81 71.7374L185 73" stroke="#139A43"/>
</svg>
